<?xml version="1.0" encoding="UTF-8" standalone="no"?>
<svg
   xmlns:dc="http://purl.org/dc/elements/1.1/"
   xmlns:cc="http://creativecommons.org/ns#"
   xmlns:rdf="http://www.w3.org/1999/02/22-rdf-syntax-ns#"
   xmlns:svg="http://www.w3.org/2000/svg"
   xmlns="http://www.w3.org/2000/svg"
   xmlns:sodipodi="http://sodipodi.sourceforge.net/DTD/sodipodi-0.dtd"
   xmlns:inkscape="http://www.inkscape.org/namespaces/inkscape"
   xml:space="preserve"
   style="enable-background:new 0 0 100 100;"
   viewBox="0 0 100 100"
   y="0px"
   x="0px"
   sodipodi:docname="img-empty-dark-multisend.svg"
   inkscape:version="1.0 (4035a4fb49, 2020-05-01)"
   id="ic_empty_dark_multisend"
   version="1.1"><metadata
   id="metadata39"><rdf:RDF><cc:Work
       rdf:about=""><dc:format>image/svg+xml</dc:format><dc:type
         rdf:resource="http://purl.org/dc/dcmitype/StillImage" /></cc:Work></rdf:RDF></metadata><defs
   id="defs37"><pattern
     y="0"
     x="0"
     height="6"
     width="6"
     patternUnits="userSpaceOnUse"
     id="EMFhbasepattern" /></defs>
<style
   id="style2"
   type="text/css">
	.st0{fill:#2EA1FF;}
	.st1{fill:#A09EA5;}
	.st2{fill:#EFEFEF;}
</style>
<sodipodi:namedview
   inkscape:window-maximized="1"
   inkscape:window-y="-8"
   inkscape:window-x="-8"
   inkscape:document-rotation="0"
   showgrid="false"
   pagecolor="#ffffff"
   objecttolerance="10"
   inkscape:zoom="17.012937"
   inkscape:window-width="1920"
   inkscape:window-height="1017"
   inkscape:pageshadow="2"
   inkscape:pageopacity="0"
   inkscape:cy="36.939097"
   inkscape:cx="45.269144"
   inkscape:current-layer="ic_empty_dark_multisend"
   id="namedview25"
   guidetolerance="10"
   gridtolerance="10"
   borderopacity="1"
   bordercolor="#666666">
	</sodipodi:namedview>
<g
   id="Group_9062">
	<g
   id="Group_9060">
		<path
   style="fill:#000000;fill-opacity:0.93333334"
   d="M45,18h10v9H45V18z"
   class="st0"
   id="Rectangle_4717" />
		<g
   style="fill:#019def;fill-opacity:0.93333334"
   id="Group_9059">
			<path
   style="fill:#8e1baa;fill-opacity:1"
   d="M14,66h6v10h-6V66z"
   class="st0"
   id="Rectangle_4718" />
			<path
   style="fill:#8e1baa;fill-opacity:1"
   d="M80,66h6v10h-6V66z"
   class="st0"
   id="Rectangle_4719" />
			<path
   style="fill:#8e1baa;fill-opacity:1"
   d="M47,66h6v10h-6V66z"
   class="st0"
   id="Rectangle_4720" />
		</g>
	</g>
	<g
   id="Group_9061">
		<path
   d="M67,40h2v4h-2V40z"
   class="st1"
   id="Rectangle_4722" />
		<circle
   r="1"
   cy="73"
   cx="50"
   class="st1"
   id="Ellipse_643" />
		<circle
   r="1"
   cy="73"
   cx="83"
   class="st1"
   id="Ellipse_644" />
		<path
   d="M32,58h4v2h-4V58z"
   class="st1"
   id="Rectangle_4723" />
		<path
   d="M16,65h-3v3H7v4h2v-2h4v7h8v-7h4v21H9V76H7v17h20V68h-6v-3h-3v-5h10v-2H16V65z M19,67v8h-4    v-8H19z"
   class="st1"
   id="Path_19007" />
		<circle
   r="1"
   cy="73"
   cx="17"
   class="st1"
   id="Ellipse_645" />
		<path
   d="M87,68v-3h-3v-7H51v-5h18v-5h-2v3H33V28h34v8h2v-8h4V17H59.5c2.2-2.5,2-6.3-0.5-8.5    s-6.3-2-8.5,0.5c-0.2,0.2-0.4,0.5-0.5,0.7c-1.8-2.8-5.5-3.5-8.3-1.7s-3.5,5.5-1.7,8.3c0.2,0.3,0.4,0.5,0.6,0.7H27v11h4v25h18v5h-9    v2h9v5h-3v3h-6v16h2V70h4v7h8v-7h4v21H42v-3h-2v5h20V68h-6v-3h-3v-5h31v5h-3v3h-6v12h2V70h4v7h8v-7h4v21H75v-7h-2v9h20V68H87z     M71,19v7H56v-7H71z M51,13c0-2.2,1.8-4,4-4s4,1.8,4,4s-1.8,4-4,4h-4V13z M51,19h3v7h-8v-7H51z M45,9c2.2,0,4,1.8,4,4v4h-4    c-2.2,0-4-1.8-4-4S42.8,9,45,9z M29,26v-7h15v7H29z M52,67v8h-4v-8H52z M85,75h-4v-8h4V75z"
   class="st1"
   id="Path_19008" />
	</g>
</g>
<rect
   style="fill:#000000;fill-opacity:0.933333"
   id="rect20"
   height="23"
   width="34"
   class="st0"
   y="28"
   x="33" />

<g
   transform="matrix(0.16737206,0,0,0.14564737,-22.908454,9.7432215)"
   id="g937" /></svg>
