<?xml version="1.0" encoding="UTF-8" standalone="no"?>
<svg
   xmlns:dc="http://purl.org/dc/elements/1.1/"
   xmlns:cc="http://creativecommons.org/ns#"
   xmlns:rdf="http://www.w3.org/1999/02/22-rdf-syntax-ns#"
   xmlns:svg="http://www.w3.org/2000/svg"
   xmlns="http://www.w3.org/2000/svg"
   xmlns:sodipodi="http://sodipodi.sourceforge.net/DTD/sodipodi-0.dtd"
   xmlns:inkscape="http://www.inkscape.org/namespaces/inkscape"
   xml:space="preserve"
   style="enable-background:new 0 0 100 100;"
   viewBox="0 0 100 100"
   y="0px"
   x="0px"
   sodipodi:docname="img-empty-dark-transactions.svg"
   inkscape:version="1.0 (4035a4fb49, 2020-05-01)"
   id="ic_empty_Dark_transactions"
   version="1.1"><metadata
   id="metadata34"><rdf:RDF><cc:Work
       rdf:about=""><dc:format>image/svg+xml</dc:format><dc:type
         rdf:resource="http://purl.org/dc/dcmitype/StillImage" /></cc:Work></rdf:RDF></metadata><defs
   id="defs32"><pattern
     y="0"
     x="0"
     height="6"
     width="6"
     patternUnits="userSpaceOnUse"
     id="EMFhbasepattern" /></defs>
<style
   id="style2"
   type="text/css">
	.st0{fill:#2EA1FF;}
	.st1{fill:#A09EA5;}
	.st2{fill:#EFEFEF;}
</style>
<sodipodi:namedview
   inkscape:window-maximized="1"
   inkscape:window-y="-8"
   inkscape:window-x="-8"
   inkscape:document-rotation="0"
   showgrid="false"
   pagecolor="#ffffff"
   objecttolerance="10"
   inkscape:zoom="12.271765"
   inkscape:window-width="1920"
   inkscape:window-height="1017"
   inkscape:pageshadow="2"
   inkscape:pageopacity="0"
   inkscape:cy="29.835175"
   inkscape:cx="47.145526"
   inkscape:current-layer="Group_9036"
   id="namedview22"
   guidetolerance="10"
   gridtolerance="10"
   borderopacity="1"
   bordercolor="#666666">
	</sodipodi:namedview>
<g
   id="Group_9036">
	<circle
   style="fill:#141414;fill-opacity:1"
   r="17.9"
   id="circle5"
   cy="50"
   cx="49.900002"
   class="st0" />
	<path
   style="fill:#141414;fill-opacity:1"
   d="M50,26c-13.3,0-24,10.7-24,24s10.7,24,24,24s24-10.7,24-24S63.3,26,50,26z M50,68   c-9.9,0-18-8.1-18-18s8.1-18,18-18s18,8.1,18,18S59.9,68,50,68z"
   class="st0"
   id="Path_18988" />
	<g
   id="Group_9035">
		<g
   id="Group_9034">
			
			<path
   d="M83,56h2v4h-2V56z"
   class="st1"
   id="Rectangle_4693" />
			<path
   d="M83,44h2v8h-2V44z"
   class="st1"
   id="Rectangle_4694" />
			<path
   d="M15,48h2v8h-2V48z"
   class="st1"
   id="Rectangle_4695" />
			<path
   d="M15,40h2v4h-2V40z"
   class="st1"
   id="Rectangle_4696" />
			<path
   d="M95.2,71H85v-7h-2v9h7.8L76,90.5L61.2,73H68v-2h-4.5c11.6-7.5,15-22.9,7.5-34.5     c-6.4-9.9-18.9-14-29.9-9.8L24,6.5L4.8,29H15v7h2v-9H9.2L24,9.5L38.8,27H32v2h4.5c-11.6,7.5-15,22.9-7.5,34.5     c6.4,9.9,18.9,14,29.9,9.8L76,93.5L95.2,71z M27,50c0-12.7,10.3-23,23-23s23,10.3,23,23S62.7,73,50,73S27,62.7,27,50z"
   class="st1"
   id="Path_18991" />
		</g>
	</g>
	
</g>
</svg>
